# xmcd CD database file
#
# Track frame offsets:
#	150
#	19300
#	39440
#
# Disc length: 763 seconds
#
# Revision: 0
# Processed by: cddbd v1.5.1PL0 Copyright (c) Steve Scherf et al.
# Submitted via: CDex 1.51
#
DISCID=1c02f903
DTITLE=八木さやか - 夢跡
DYEAR=2001
DGENRE=J ポップ
TTITLE0=夢跡
TTITLE1=願う糸の先
TTITLE2=思わくば
EXTD=YEAR: 2001
EXTT0=
EXTT1=
EXTT2=
PLAYORDER=
